<?xml version="1.0" encoding="UTF-8"?>
<svg width="16px" height="17px" viewBox="0 0 16 17" version="1.1" xmlns="http://www.w3.org/2000/svg" xmlns:xlink="http://www.w3.org/1999/xlink">
    <title></title>
    <g id="Page-1" stroke="none" stroke-width="1" fill="none" fill-rule="evenodd">
        <g id="Artboard" transform="translate(-1.000000, 0.000000)" fill="#282828" fill-rule="nonzero">
            <path d="M15.4052162,16.322777 L16.510236,15.2177572 C16.6625374,15.0654558 16.6625374,14.8178825 16.510236,14.6655334 L10.469725,8.62502235 L16.510236,2.58451132 C16.6625374,2.43216221 16.6625374,2.18458895 16.510236,2.03228752 L15.4052162,0.927267725 C15.2529148,0.7749663 15.0053415,0.7749663 14.8529924,0.927267725 L8.81248137,6.96777876 L2.77197034,0.926790889 C2.61962123,0.77444178 2.37204797,0.77444178 2.21974654,0.926790889 L1.11424991,2.031763 C0.961900802,2.18411211 0.961900802,2.43168537 1.11424991,2.58403448 L7.15523778,8.62502235 L1.11424991,14.6655334 C0.961900802,14.8178825 0.961900802,15.0654558 1.11424991,15.2177572 L2.21922202,16.322777 C2.37157113,16.4750784 2.61914439,16.4750784 2.7714935,16.322777 L8.81248137,10.2822659 L14.8529924,16.322777 C15.0053415,16.4750784 15.2529148,16.4750784 15.4052162,16.322777 Z" id=""></path>
        </g>
    </g>
</svg>